# xmcd
#
# Track frame offsets:
#	150
#	21980
#	39842
#	59094
#	75599
#	96069
#	115427
#	134742
#	151988
#	175863
#	197483
#	214741
#	245229
#
# Disc length: 3517 seconds
#
# Revision: 1
# Processed by: cddbd v1.5.2PL0 Copyright (c) Steve Scherf et al.
# Submitted via: EasyCDDAExtractor 2010.6.0.0
#
DISCID=b70dbb0d
DTITLE=John Francis - The Better Angels
DYEAR=2010
DGENRE=Country
TTITLE0=The Way The Empire Fell
TTITLE1=Johnny Cash On The Radio
TTITLE2=Who?
TTITLE3=People On The Edge Of The World
TTITLE4=The Beautiful One
TTITLE5=Prayer In The Time Of Drought
TTITLE6=Call Me When You're Ready
TTITLE7=War Register Blues
TTITLE8=Love Came To Me Dressed In Red
TTITLE9=Mississippi
TTITLE10=Everything Is Falling Away
TTITLE11=Brother's Keeper
TTITLE12=Love, Oh, Love ('Til My Train)
EXTD=
EXTT0=
EXTT1=
EXTT2=
EXTT3=
EXTT4=
EXTT5=
EXTT6=
EXTT7=
EXTT8=
EXTT9=
EXTT10=
EXTT11=
EXTT12=
PLAYORDER=
